name analog
datacolumns 19
datarows 36
range 0.5015 0.5189999999999999
endheader
time	ground_force_vx	ground_force_vy	ground_force_vz	ground_force_px	ground_force_py	ground_force_pz	l_ground_force_vx	l_ground_force_vy	l_ground_force_vz	l_ground_force_px	l_ground_force_py	l_ground_force_pz	ground_torque_x	ground_torque_y	ground_torque_z	l_ground_torque_x	l_ground_torque_y	l_ground_torque_z
0.5015	-0.0	-0.0	-0.0	-7.490214824676514	-9.510560035705566	-347.529052734375	-0.0362800732254982	10.478120803833008	-393.2478942871094	-0.0	-0.0	-0.0	-0.0	-0.0	-0.0	102158.8984375	-37802.6328125	-5924.77197265625
0.5019999999999999	-0.0	-0.0	-0.0	-8.276880264282227	-9.484092712402344	-348.693359375	-0.0099522322416305	10.598602294921877	-394.1280212402344	-0.0	-0.0	-0.0	-0.0	-0.0	-0.0	102463.4140625	-37818.046875	-6031.2216796875
0.5025	-0.0	-0.0	-0.0	-8.098686218261719	-9.101027488708496	-347.7388000488281	-0.141291469335556	11.030414581298828	-395.3431091308594	-0.0	-0.0	-0.0	-0.0	-0.0	-0.0	102579.7265625	-37988.6328125	-6111.380859375
0.5029999999999999	-0.0	-0.0	-0.0	-8.465353012084961	-9.011807441711426	-348.9035949707031	-0.0789600014686584	10.997509956359863	-396.7782287597656	-0.0	-0.0	-0.0	-0.0	-0.0	-0.0	103064.1953125	-37971.875	-6120.11669921875
0.5035	-0.0	-0.0	-0.0	-8.85092544555664	-8.378257751464844	-351.8050231933594	0.1774215698242187	11.1906156539917	-397.8911743164063	-0.0	-0.0	-0.0	-0.0	-0.0	-0.0	103377.1328125	-38142.83984375	-6039.68310546875
0.5039999999999999	-0.0	-0.0	-0.0	-9.528360366821287	-8.226566314697266	-352.12042236328125	-0.167885810136795	11.09276294708252	-399.0427551269531	-0.0	-0.0	-0.0	-0.0	-0.0	-0.0	103872.2265625	-38174.19921875	-6027.9267578125
0.5045	-0.0	-0.0	-0.0	-9.697314262390137	-7.976512432098389	-354.4872131347656	-0.5416879653930664	11.049592971801758	-400.2688903808594	-0.0	-0.0	-0.0	-0.0	-0.0	-0.0	104053.8046875	-38397.4609375	-6129.197265625
0.5049999999999999	-0.0	-0.0	-0.0	-9.883891105651855	-7.682618618011475	-355.6156311035156	-0.575830340385437	10.607906341552734	-400.6851806640625	-0.0	-0.0	-0.0	-0.0	-0.0	-0.0	104256.8359375	-38306.390625	-6075.71826171875
0.5055	-0.0	-0.0	-0.0	-9.911491394042969	-7.70100212097168	-357.2763061523437	-0.5852502584457397	10.607793807983398	-400.5085144042969	-0.0	-0.0	-0.0	-0.0	-0.0	-0.0	104203.4296875	-38225.33203125	-6117.373046875
0.5059999999999999	-0.0	-0.0	-0.0	-9.97385597229004	-7.576084136962891	-357.1005859375	-0.7270965576171875	10.60768222808838	-402.1541748046875	-0.0	-0.0	-0.0	-0.0	-0.0	-0.0	104277.4140625	-38361.0859375	-6019.623046875
0.5065	-0.0	-0.0	-0.0	-9.518765449523926	-8.021736145019531	-358.0185241699219	-0.426038920879364	10.775245666503906	-401.52435302734375	-0.0	-0.0	-0.0	-0.0	-0.0	-0.0	104392.9375	-38274.48046875	-5897.6865234375
0.5069999999999999	-0.0	-0.0	-0.0	-9.171043395996094	-7.71876049041748	-357.9834899902344	-0.1508276462554931	10.37770175933838	-402.3273315429688	-0.0	-0.0	-0.0	-0.0	-0.0	-0.0	103966.515625	-38160.1796875	-5698.8740234375
0.5075	-0.0	-0.0	-0.0	-9.143719673156738	-7.558687210083008	-357.06494140625	0.0444463193416595	10.748730659484863	-401.4195556640625	-0.0	-0.0	-0.0	-0.0	-0.0	-0.0	103971.8515625	-38045.00390625	-5740.20849609375
0.5079999999999999	-0.0	-0.0	-0.0	-8.929677963256836	-7.656595230102539	-355.30291748046875	0.2573946118354797	11.375656127929688	-400.1277465820313	-0.0	-0.0	-0.0	-0.0	-0.0	-0.0	103553.5390625	-37806.69921875	-5674.5947265625
0.5085	-0.0	-0.0	-0.0	-8.778042793273926	-7.8349690437316895	-356.0390930175781	0.4435539245605469	11.155110359191896	-398.8362121582031	-0.0	-0.0	-0.0	-0.0	-0.0	-0.0	103472.078125	-37721.12890625	-5733.82177734375
0.5089999999999999	-0.0	-0.0	-0.0	-8.0929536819458	-7.826688766479492	-357.3447265625	0.6124626994132996	11.348742485046388	-397.3345336914063	-0.0	-0.0	-0.0	-0.0	-0.0	-0.0	103216.0625	-37735.328125	-5573.52099609375
0.5095	-0.0	-0.0	-0.0	-7.726022243499756	-8.05699634552002	-355.54547119140625	0.868798017501831	11.69350814819336	-397.3677978515625	-0.0	-0.0	-0.0	-0.0	-0.0	-0.0	102768.4296875	-37419.20703125	-5433.8779296875
0.5099999999999999	-0.0	-0.0	-0.0	-7.91273832321167	-8.119078636169434	-355.08526611328125	1.4729578495025637	11.835105895996094	-396.63623046875	-0.0	-0.0	-0.0	-0.0	-0.0	-0.0	102944.5	-37315.859375	-5460.30224609375
0.5105	-0.0	-0.0	-0.0	-6.985454559326172	-8.47548770904541	-353.0087280273437	1.2419509887695312	11.915243148803713	-395.6211242675781	-0.0	-0.0	-0.0	-0.0	-0.0	-0.0	102965.4296875	-37253.171875	-5460.49658203125
0.5109999999999999	-0.0	-0.0	-0.0	-7.179940223693848	-8.750800132751465	-351.48944091796875	0.940827250480652	11.580690383911133	-396.63623046875	-0.0	-0.0	-0.0	-0.0	-0.0	-0.0	102760.515625	-37223.69921875	-5540.021484375
0.5115	-0.0	-0.0	-0.0	-6.90422248840332	-8.843076705932617	-349.8000183105469	0.4973414838314056	11.08576774597168	-396.63623046875	-0.0	-0.0	-0.0	-0.0	-0.0	-0.0	102609.8515625	-37160.15234375	-5546.69091796875
0.5119999999999999	-0.0	-0.0	-0.0	-7.00115966796875	-9.409188270568848	-349.54071044921875	0.3817743957042694	10.79417610168457	-395.8942565917969	-0.0	-0.0	-0.0	-0.0	-0.0	-0.0	102519.3671875	-36911.19140625	-5562.17333984375
0.5124999999999998	-0.0	-0.0	-0.0	-7.074804306030273	-9.440140724182127	-349.2645263671875	0.3009056150913238	10.54490089416504	-396.5300903320313	-0.0	-0.0	-0.0	-0.0	-0.0	-0.0	102275.3203125	-37153.359375	-5464.30859375
0.5129999999999999	-0.0	-0.0	-0.0	-6.229517936706543	-9.618481636047363	-349.587890625	0.4088334143161773	10.610095977783203	-395.6950378417969	-0.0	-0.0	-0.0	-0.0	-0.0	-0.0	102273.8828125	-37048.93359375	-5546.77294921875
0.5134999999999998	-0.0	-0.0	-0.0	-5.880397796630859	-9.50973892211914	-349.61846923828125	0.9141404628753662	10.932554244995115	-395.8016052246094	-0.0	-0.0	-0.0	-0.0	-0.0	-0.0	102537.359375	-36980.52734375	-5383.8427734375
0.5139999999999999	-0.0	-0.0	-0.0	-5.895276546478272	-9.316688537597656	-348.55938720703125	1.0299588441848757	10.775245666503906	-397.4411010742188	-0.0	-0.0	-0.0	-0.0	-0.0	-0.0	102719.46875	-36821.8828125	-5324.49755859375
0.5144999999999998	-0.0	-0.0	-0.0	-5.860591411590576	-9.16045093536377	-349.9221496582031	0.5864572525024414	10.65994644165039	-396.287109375	-0.0	-0.0	-0.0	-0.0	-0.0	-0.0	102501.2578125	-37021.19921875	-5315.798828125
0.5149999999999999	-0.0	-0.0	-0.0	-6.533939361572266	-8.625517845153809	-350.4342956542969	0.7639538049697876	10.48326587677002	-396.287109375	-0.0	-0.0	-0.0	-0.0	-0.0	-0.0	102536.6875	-36809.46875	-5365.98486328125
0.5154999999999998	-0.0	-0.0	-0.0	-6.395779132843018	-8.70035457611084	-349.3473205566406	-0.0143940448760986	10.191211700439451	-396.39404296875	-0.0	-0.0	-0.0	-0.0	-0.0	-0.0	102527.3125	-36915.46484375	-5544.59716796875
0.5159999999999999	-0.0	-0.0	-0.0	-6.368356704711914	-8.282123565673828	-348.9417724609375	-0.1430980563163757	9.904906272888184	-397.6837158203125	-0.0	-0.0	-0.0	-0.0	-0.0	-0.0	102600.4609375	-36707.4140625	-5562.94775390625
0.5164999999999998	-0.0	-0.0	-0.0	-6.47113561630249	-7.898301601409912	-349.5395202636719	-0.6824551820755005	9.762621879577637	-394.8628540039063	-0.0	-0.0	-0.0	-0.0	-0.0	-0.0	102448.6484375	-36841.08984375	-5415.072265625
0.5169999999999999	-0.0	-0.0	-0.0	-6.53984260559082	-8.268454551696777	-350.2457275390625	-0.504996120929718	9.980350494384766	-396.0452575683594	-0.0	-0.0	-0.0	-0.0	-0.0	-0.0	102355.90625	-36866.69140625	-5424.03466796875
0.5174999999999998	-0.0	-0.0	-0.0	-6.724995136260986	-7.994258880615234	-349.8924560546875	-0.566385805606842	10.333637237548828	-396.5824890136719	-0.0	-0.0	-0.0	-0.0	-0.0	-0.0	102458.734375	-36807.3046875	-5570.05615234375
0.5179999999999999	-0.0	-0.0	-0.0	-6.032183647155762	-8.50148868560791	-350.32843017578125	-0.4162215888500213	10.836355209350586	-394.809326171875	-0.0	-0.0	-0.0	-0.0	-0.0	-0.0	102226.5625	-36817.44921875	-5467.11181640625
0.5184999999999998	-0.0	-0.0	-0.0	-5.805161476135254	-8.274519920349121	-349.0253295898437	-0.095312088727951	10.632424354553224	-394.7010192871094	-0.0	-0.0	-0.0	-0.0	-0.0	-0.0	102212.5078125	-36607.36328125	-5555.90185546875
0.5189999999999999	-0.0	-0.0	-0.0	-5.4078450202941895	-8.221196174621582	-348.8072204589844	-0.7161981463432312	10.945405960083008	-393.442626953125	-0.0	-0.0	-0.0	-0.0	-0.0	-0.0	101681.7890625	-36534.26953125	-5563.22900390625
